<svg width="59" height="54" viewBox="0 0 59 54" fill="none" xmlns="http://www.w3.org/2000/svg">
<path d="M57.9982 39.932V47.7601C58.0015 48.4868 57.838 49.2061 57.5182 49.872C57.1985 50.5378 56.7295 51.1355 56.1413 51.6268C55.5532 52.1181 54.8588 52.4921 54.1027 52.7249C53.3466 52.9578 52.5454 53.0442 51.7505 52.9788C42.9315 52.1064 34.4602 49.3626 27.0174 44.9681C20.0928 40.9618 14.2219 35.6165 9.82171 29.3119C4.9782 22.5046 1.96399 14.7542 1.02326 6.68867C0.951644 5.96709 1.04583 5.23985 1.29983 4.55323C1.55382 3.86661 1.96206 3.23567 2.49855 2.70057C3.03504 2.16547 3.68803 1.73795 4.41594 1.44521C5.14385 1.15247 5.93073 1.00094 6.72649 1.00025H15.3243C16.7152 0.987789 18.0636 1.43622 19.1182 2.26197C20.1727 3.08771 20.8615 4.23442 21.0562 5.48836C21.4191 7.99353 22.0921 10.4533 23.0624 12.8207C23.448 13.7546 23.5314 14.7697 23.3028 15.7455C23.0743 16.7213 22.5432 17.617 21.7727 18.3264L18.1329 21.6403C22.2128 28.173 28.1536 33.582 35.3286 37.2965L38.9684 33.9826C39.7476 33.2811 40.7314 32.7976 41.8031 32.5895C42.8749 32.3814 43.9897 32.4573 45.0155 32.8084C47.6157 33.6918 50.3173 34.3046 53.0688 34.635C54.461 34.8138 55.7324 35.4522 56.6413 36.4289C57.5502 37.4056 58.0331 38.6523 57.9982 39.932Z" stroke="#FFE7E7" stroke-width="2" stroke-linecap="round" stroke-linejoin="round"/>
</svg>
